<?xml version="1.0" encoding="UTF-8" standalone="no"?>
<svg
   inkscape:version="1.2.1 (9c6d41e410, 2022-07-14)"
   id="svg8"
   version="1.1"
   viewBox="0 0 19.795964 19.795965"
   height="0.7793687in"
   width="0.77936864in"
   sodipodi:docname="any.svg"
   xml:space="preserve"
   xmlns:inkscape="http://www.inkscape.org/namespaces/inkscape"
   xmlns:sodipodi="http://sodipodi.sourceforge.net/DTD/sodipodi-0.dtd"
   xmlns="http://www.w3.org/2000/svg"
   xmlns:svg="http://www.w3.org/2000/svg"
   xmlns:rdf="http://www.w3.org/1999/02/22-rdf-syntax-ns#"
   xmlns:cc="http://creativecommons.org/ns#"
   xmlns:dc="http://purl.org/dc/elements/1.1/"><defs
     id="defs2" /><sodipodi:namedview
     units="in"
     inkscape:snap-bbox="true"
     inkscape:showpageshadow="false"
     showgrid="false"
     inkscape:document-rotation="0"
     inkscape:current-layer="g1363"
     inkscape:document-units="mm"
     inkscape:cy="28.374999"
     inkscape:cx="-48.249999"
     inkscape:zoom="4.0000001"
     inkscape:pageshadow="2"
     inkscape:pageopacity="0"
     borderopacity="1"
     bordercolor="#b7b7b7"
     pagecolor="#404040"
     id="base"
     inkscape:pagecheckerboard="0"
     inkscape:deskcolor="#404040" /><metadata
     id="metadata5"><rdf:RDF><cc:Work
         rdf:about=""><dc:format>image/svg+xml</dc:format><dc:type
           rdf:resource="http://purl.org/dc/dcmitype/StillImage" /></cc:Work></rdf:RDF></metadata><g
     id="layer1"
     inkscape:groupmode="layer"
     inkscape:label="Layer 1"
     transform="translate(-320.18808,-90.445236)"><g
       id="g1363"
       style="stroke:none"><rect
         style="fill:none;fill-opacity:1;stroke:none;stroke-width:0.209494;stroke-dasharray:none;stroke-opacity:1;paint-order:markers stroke fill;stop-color:#000000"
         id="rect1286"
         width="19.795965"
         height="19.795965"
         x="320.18808"
         y="90.445236" /><g
         aria-label="?"
         id="text307"
         style="font-size:14.3892px;line-height:1.25;font-family:Expressway;-inkscape-font-specification:Expressway;letter-spacing:0px;word-spacing:0px;fill:#ffffff;stroke-width:0.337246"><path
           d="m 331.98654,94.368926 q 0.56118,0.489233 1.19431,1.122358 0.63312,0.618735 0.97846,0.992854 l 0.35973,0.37412 -0.7914,3.813142 q -0.4029,0.34534 -0.87774,0.69068 -0.46046,0.34534 -0.73385,0.51801 l -0.2734,0.17267 q -0.30217,-0.0432 -0.54679,-0.0288 -0.24461,0.0144 -0.38851,0.0576 l -0.15828,0.0575 -0.10072,1.61159 h -1.89938 l -0.11511,-1.98571 q 0.33095,-0.27339 0.6619,-0.63312 0.33096,-0.35973 0.48924,-0.57557 l 0.15828,-0.23023 q 0.259,0 0.67629,-0.0288 0.41729,-0.0288 0.70507,-0.0576 l 0.28779,-0.0432 0.15828,-3.367071 q -0.9353,-0.02878 -1.8706,-0.02878 -0.92091,0 -1.38136,0.01439 h -0.46046 l 0.10073,2.215937 -2.50372,0.244616 -0.28779,-2.316661 2.31666,-2.633224 z m -3.38146,10.389004 q 1.05041,-0.0144 2.18716,0.0144 -0.0144,0.82018 -0.0432,1.69792 h -2.04326 q -0.0432,-0.90652 -0.10073,-1.71231 z"
           style="font-family:'Splatfont 2';-inkscape-font-specification:'Splatfont 2, '"
           id="path562" /></g></g></g><inkscape:templateinfo><inkscape:name>Dark Background</inkscape:name><inkscape:shortdesc>8.5x11</inkscape:shortdesc><inkscape:date>2020-07-09</inkscape:date></inkscape:templateinfo></svg>
