<?xml version="1.0" encoding="UTF-8" standalone="no"?>
<svg
   inkscape:version="1.2.1 (9c6d41e410, 2022-07-14)"
   id="svg8"
   version="1.1"
   viewBox="0 0 19.795965 19.795967"
   height="0.77936876in"
   width="0.7793687in"
   sodipodi:docname="Splatnet Shop Alerts Icon Design.svg"
   xml:space="preserve"
   xmlns:inkscape="http://www.inkscape.org/namespaces/inkscape"
   xmlns:sodipodi="http://sodipodi.sourceforge.net/DTD/sodipodi-0.dtd"
   xmlns="http://www.w3.org/2000/svg"
   xmlns:svg="http://www.w3.org/2000/svg"
   xmlns:rdf="http://www.w3.org/1999/02/22-rdf-syntax-ns#"
   xmlns:cc="http://creativecommons.org/ns#"
   xmlns:dc="http://purl.org/dc/elements/1.1/"><defs
     id="defs2" /><sodipodi:namedview
     units="in"
     inkscape:snap-bbox="true"
     inkscape:showpageshadow="false"
     showgrid="false"
     inkscape:document-rotation="0"
     inkscape:current-layer="layer1"
     inkscape:document-units="mm"
     inkscape:cy="-67.749998"
     inkscape:cx="80.999998"
     inkscape:zoom="2.0000001"
     inkscape:pageshadow="2"
     inkscape:pageopacity="0"
     borderopacity="1"
     bordercolor="#b7b7b7"
     pagecolor="#404040"
     id="base"
     inkscape:pagecheckerboard="0"
     inkscape:deskcolor="#404040" /><metadata
     id="metadata5"><rdf:RDF><cc:Work
         rdf:about=""><dc:format>image/svg+xml</dc:format><dc:type
           rdf:resource="http://purl.org/dc/dcmitype/StillImage" /></cc:Work></rdf:RDF></metadata><g
     id="layer1"
     inkscape:groupmode="layer"
     inkscape:label="Layer 1"
     transform="translate(-280.80567,-110.2412)"><g
       id="g1029"><rect
         style="fill:none;fill-opacity:1;stroke:none;stroke-width:0.209494;stroke-dasharray:none;stroke-opacity:1;paint-order:markers stroke fill;stop-color:#000000"
         id="rect330"
         width="19.795965"
         height="19.795965"
         x="280.80566"
         y="110.2412" /><path
         id="path956"
         style="fill:#ffffff;fill-opacity:1;stroke:none;stroke-width:0.457877;stroke-opacity:1;paint-order:markers stroke fill;stop-color:#000000"
         d="m 297.93338,119.3315 -3.1026,0.93096 0.45848,0.72825 v 1.05228 l -1.05199,1.18732 1.25439,0.52614 3.57508,-0.72855 -0.31032,-3.26475 z m -5.39616,4.182 -1.53788,0.17529 -0.4856,1.02545 0.68801,0.2832 0.32373,-0.79593 1.10624,-0.33715 z m 0.79592,0.35087 -1.15989,0.44506 -0.5801,0.83646 0.80933,0.25636 0.0268,-0.4856 1.6595,-0.79592 z m 6.03021,0.0539 -3.92564,0.51243 -0.82275,-0.26978 -1.63238,0.95779 0.0406,0.5801 0.98462,0.14845 1.44338,-0.45848 3.54795,-0.33744 0.55327,-0.31032 z m -8.89015,1.48393 -0.24265,0.71484 1.91557,1.09282 2.45513,0.0674 0.70172,-0.71483 1.68603,-0.0406 -0.0268,0.62064 2.17193,0.0674 0.40482,-0.24295 0.0134,-0.86329 0.0945,-0.44505 -0.60722,0.31002 -2.65753,0.0271 -1.20074,0.20242 -1.63238,0.41823 z"
         inkscape:export-filename="shoes.svg"
         inkscape:export-xdpi="25.4"
         inkscape:export-ydpi="25.4" /><text
         xml:space="preserve"
         style="font-size:5.80708px;line-height:1.25;font-family:Expressway;-inkscape-font-specification:Expressway;letter-spacing:0px;word-spacing:0px;fill:#ffffff;fill-opacity:1;stroke-width:0.136104"
         x="289.96167"
         y="122.5461"
         id="text960"><tspan
           sodipodi:role="line"
           id="tspan958"
           style="font-style:normal;font-variant:normal;font-weight:normal;font-stretch:normal;font-family:'Splatfont 2';-inkscape-font-specification:'Splatfont 2, ';fill:#ffffff;fill-opacity:1;stroke-width:0.136104"
           x="289.96167"
           y="122.5461">+</tspan></text><path
         id="path962"
         style="fill:#ffffff;fill-opacity:1;stroke:none;stroke-width:0.429799;paint-order:markers stroke fill;stop-color:#000000"
         d="m 285.56178,111.19731 -1.76005,1.92486 1.27904,-0.2661 0.861,0.88645 -0.0126,0.68387 h 0.83581 v -0.69646 l 0.93683,-0.87386 1.15257,0.27869 -1.77292,-1.87421 -0.25323,0.17741 -0.88646,0.0378 z m 1.50709,1.02581 -0.67128,1.31682 -0.70906,-1.30422 0.63323,0.22776 z m -2.0768,1.54487 -0.98775,0.20259 0.4684,1.44357 -0.79775,2.67197 0.75998,0.67101 -0.25323,0.83581 4.25462,-0.038 -0.29129,-0.78517 0.65868,-0.5823 -0.69646,-2.69743 0.59517,-1.64617 -1.0384,-0.0252 -0.41805,0.51907 -0.0632,0.72192 -1.69682,0.0126 0.0125,-0.64582 z m 4.24203,0.40517 -0.0127,0.63323 -0.35453,0.69647 0.73452,2.6591 -0.67128,0.86099 0.62063,0.46869 0.92424,-0.54452 0.1774,-1.13969 -1.05099,-1.49422 -0.0507,-1.35488 z m -5.79949,0.13936 -0.2787,0.59517 -0.1013,1.40552 -1.07645,1.40552 0.20259,1.13969 0.93711,0.69647 0.67128,-0.38 -0.69647,-0.86099 0.0126,-0.34194 0.67099,-2.29198 z"
         inkscape:export-filename="clothing.svg"
         inkscape:export-xdpi="25.4"
         inkscape:export-ydpi="25.4" /></g><g
       id="g1036"><rect
         style="fill:none;fill-opacity:1;stroke:none;stroke-width:0.209494;stroke-dasharray:none;stroke-opacity:1;paint-order:markers stroke fill;stop-color:#000000"
         id="rect324"
         width="19.795965"
         height="19.795965"
         x="300.60162"
         y="110.2412" /><path
         id="path964"
         style="fill:#ffffff;fill-opacity:1;stroke:none;stroke-width:0.44367;paint-order:markers stroke fill;stop-color:#000000"
         d="m 305.09866,111.62196 -1.37261,0.87318 -0.50808,1.08867 0.0728,1.79027 1.54823,0.93153 2.90321,-0.738 0.7016,-1.47572 -0.27816,-1.35469 -1.33072,-1.04043 z m 3.63543,1.28451 0.61698,1.48785 -1.05256,2.03233 -3.83445,1.06441 -1.86307,-1.06441 0.0607,-2.05659 -0.8469,0.87115 -0.38706,2.06844 2.99998,1.76602 4.68134,-1.48786 1.75417,-2.41939 -0.8469,-1.6935 z"
         inkscape:export-filename="headgear.svg"
         inkscape:export-xdpi="25.4"
         inkscape:export-ydpi="25.4" /><text
         xml:space="preserve"
         style="font-size:5.80708px;line-height:1.25;font-family:Expressway;-inkscape-font-specification:Expressway;letter-spacing:0px;word-spacing:0px;fill:#ffffff;fill-opacity:1;stroke-width:0.136104"
         x="308.15604"
         y="122.03159"
         id="text968"><tspan
           sodipodi:role="line"
           id="tspan966"
           style="font-style:normal;font-variant:normal;font-weight:normal;font-stretch:normal;font-family:'Splatfont 2';-inkscape-font-specification:'Splatfont 2, ';fill:#ffffff;fill-opacity:1;stroke-width:0.136104"
           x="308.15604"
           y="122.03159">+</tspan></text><path
         id="path970"
         style="fill:#ffffff;fill-opacity:1;stroke:none;stroke-width:0.429799;paint-order:markers stroke fill;stop-color:#000000"
         d="m 314.13958,119.52276 -1.76005,1.92486 1.27904,-0.2661 0.861,0.88645 -0.0126,0.68387 h 0.83581 v -0.69646 l 0.93683,-0.87386 1.15257,0.27869 -1.77292,-1.87421 -0.25323,0.17741 -0.88646,0.0378 z m 1.50709,1.02581 -0.67128,1.31682 -0.70906,-1.30422 0.63323,0.22776 z m -2.0768,1.54487 -0.98775,0.20259 0.4684,1.44357 -0.79775,2.67197 0.75998,0.67101 -0.25323,0.83581 4.25462,-0.038 -0.29129,-0.78517 0.65868,-0.5823 -0.69646,-2.69743 0.59517,-1.64617 -1.0384,-0.0252 -0.41805,0.51907 -0.0632,0.72192 -1.69682,0.0126 0.0125,-0.64582 z m 4.24203,0.40517 -0.0127,0.63323 -0.35453,0.69647 0.73452,2.6591 -0.67128,0.86099 0.62063,0.46869 0.92424,-0.54452 0.1774,-1.13969 -1.05099,-1.49422 -0.0507,-1.35488 z m -5.79949,0.13936 -0.2787,0.59517 -0.1013,1.40552 -1.07645,1.40552 0.20259,1.13969 0.93711,0.69647 0.67128,-0.38 -0.69647,-0.86099 0.0126,-0.34194 0.67099,-2.29198 z"
         inkscape:export-filename="clothing.svg"
         inkscape:export-xdpi="25.4"
         inkscape:export-ydpi="25.4" /></g></g><inkscape:templateinfo><inkscape:name>Dark Background</inkscape:name><inkscape:shortdesc>8.5x11</inkscape:shortdesc><inkscape:date>2020-07-09</inkscape:date></inkscape:templateinfo></svg>
