<?xml version="1.0" encoding="UTF-8" standalone="no"?>
<svg
   inkscape:version="1.2 (dc2aedaf03, 2022-05-15)"
   id="svg8"
   version="1.1"
   viewBox="0 0 19.795964 19.795965"
   height="0.7793687in"
   width="0.77936864in"
   sodipodi:docname="Splatnet Shop Alerts Icon Design.svg"
   xml:space="preserve"
   xmlns:inkscape="http://www.inkscape.org/namespaces/inkscape"
   xmlns:sodipodi="http://sodipodi.sourceforge.net/DTD/sodipodi-0.dtd"
   xmlns="http://www.w3.org/2000/svg"
   xmlns:svg="http://www.w3.org/2000/svg"
   xmlns:rdf="http://www.w3.org/1999/02/22-rdf-syntax-ns#"
   xmlns:cc="http://creativecommons.org/ns#"
   xmlns:dc="http://purl.org/dc/elements/1.1/"><defs
     id="defs2" /><sodipodi:namedview
     units="in"
     inkscape:snap-bbox="true"
     inkscape:showpageshadow="false"
     showgrid="false"
     inkscape:document-rotation="0"
     inkscape:current-layer="layer3"
     inkscape:document-units="mm"
     inkscape:cy="31.624999"
     inkscape:cx="100.5"
     inkscape:zoom="4.0000001"
     inkscape:pageshadow="2"
     inkscape:pageopacity="0"
     borderopacity="1"
     bordercolor="#b7b7b7"
     pagecolor="#404040"
     id="base"
     inkscape:pagecheckerboard="0"
     inkscape:deskcolor="#404040" /><metadata
     id="metadata5"><rdf:RDF><cc:Work
         rdf:about=""><dc:format>image/svg+xml</dc:format><dc:type
           rdf:resource="http://purl.org/dc/dcmitype/StillImage" /></cc:Work></rdf:RDF></metadata><g
     id="layer1"
     inkscape:groupmode="layer"
     inkscape:label="Layer 1"
     transform="translate(-280.59616,-90.445236)"><g
       id="g1357"
       style="stroke:none"><rect
         style="fill:none;fill-opacity:1;stroke:none;stroke-width:0.209494;stroke-dasharray:none;stroke-opacity:1;paint-order:markers stroke fill;stop-color:#000000"
         id="rect972"
         width="19.795965"
         height="19.795965"
         x="300.39212"
         y="90.445236" /><path
         id="path6369"
         style="fill:#ffffff;fill-opacity:1;stroke:none;stroke-width:0.79375;paint-order:markers stroke fill;stop-color:#000000"
         d="m 309.10693,92.33679 -3.25045,3.55483 2.36213,-0.49145 1.59009,1.63711 -0.0233,1.26297 h 1.54358 v -1.28622 l 1.73012,-1.61386 2.12856,0.5147 -3.27422,-3.46129 -0.46767,0.32763 -1.63711,0.0698 z m 2.78329,1.89446 -1.23971,2.43189 -1.30949,-2.40863 1.16944,0.42064 z m -3.83542,2.85306 -1.82418,0.37414 0.86506,2.66598 -1.47329,4.93458 1.40353,1.23921 -0.46767,1.54357 7.8574,-0.0703 -0.53795,-1.45004 1.21646,-1.07539 -1.28622,-4.9816 1.09915,-3.04013 -1.91771,-0.0465 -0.77204,0.9586 -0.11679,1.33325 -3.13366,0.0233 0.0232,-1.1927 z m 7.83415,0.74827 -0.0233,1.16944 -0.65474,1.28623 1.35651,4.91081 -1.23972,1.59008 1.14618,0.86558 1.70688,-1.00562 0.32762,-2.10478 -1.94096,-2.75952 -0.0935,-2.50218 z m -10.71046,0.25735 -0.5147,1.09916 -0.18707,2.59571 -1.98799,2.5957 0.37414,2.10478 1.73064,1.28623 1.23972,-0.70177 -1.28623,-1.59008 0.0233,-0.63148 1.2392,-4.23282 z"
         inkscape:export-filename="clothing.svg"
         inkscape:export-xdpi="25.4"
         inkscape:export-ydpi="25.4" /></g><g
       id="g1352"
       style="stroke:none"><rect
         style="fill:none;fill-opacity:1;stroke:none;stroke-width:0.209494;stroke-dasharray:none;stroke-opacity:1;paint-order:markers stroke fill;stop-color:#000000"
         id="rect1288"
         width="19.795965"
         height="19.795965"
         x="280.59616"
         y="90.445236" /><path
         id="path6371"
         style="fill:#ffffff;fill-opacity:1;stroke:none;stroke-width:0.79375;stroke-opacity:1;paint-order:markers stroke fill;stop-color:#000000"
         d="m 295.3666,93.143843 -5.37849,1.61386 0.79479,1.26245 v 1.82418 l -1.82366,2.05827 2.17454,0.912097 6.19756,-1.262977 -0.53796,-5.6596 z m -9.35447,7.249697 -2.66599,0.30386 -0.84181,1.77767 1.1927,0.49092 0.5612,-1.37976 1.91771,-0.58446 z m 1.37976,0.60823 -2.01073,0.77153 -1.00562,1.45004 1.40301,0.44442 0.0465,-0.84181 2.87683,-1.37976 z m 10.45363,0.0935 -6.80527,0.88831 -1.42627,-0.46767 -2.8298,1.66037 0.0703,1.00562 1.70687,0.25735 2.50217,-0.79479 6.15053,-0.58497 0.95911,-0.53795 z m -15.41147,2.57245 -0.42064,1.2392 3.32073,1.89446 4.25607,0.11679 1.21646,-1.2392 2.92282,-0.0703 -0.0465,1.0759 3.76514,0.11679 0.70177,-0.42117 0.0232,-1.49655 0.16382,-0.77152 -1.05265,0.53743 -4.60695,0.047 -2.08153,0.35088 -2.8298,0.72502 z"
         inkscape:export-filename="shoes.svg"
         inkscape:export-xdpi="25.4"
         inkscape:export-ydpi="25.4" /></g></g><inkscape:templateinfo><inkscape:name>Dark Background</inkscape:name><inkscape:shortdesc>8.5x11</inkscape:shortdesc><inkscape:date>2020-07-09</inkscape:date></inkscape:templateinfo></svg>
