<?xml version="1.0" encoding="UTF-8"?>
<svg width="2.3661in" height="2.5521in" version="1.1" viewBox="0 0 60.098 64.823" xmlns="http://www.w3.org/2000/svg" xmlns:xlink="http://www.w3.org/1999/xlink"><defs><linearGradient id="a" x1="94.246" x2="97.152" y1="195.21" y2="187.96" gradientTransform="matrix(1.0745 0 0 1.0745 -106.79 31.87)" gradientUnits="userSpaceOnUse" xlink:href="#d"/><linearGradient id="d"><stop style="stop-color:#852828" offset="0"/><stop style="stop-color:#412713" offset="1"/></linearGradient><radialGradient id="b" cx="97.366" cy="189.03" r="1.5162" gradientTransform="matrix(.54958 -.8765 1.125 .90225 -268.56 149.06)" gradientUnits="userSpaceOnUse"><stop style="stop-color:#fff;stop-opacity:.74405" offset="0"/><stop style="stop-color:#fff;stop-opacity:0" offset="1"/></radialGradient><radialGradient id="c" cx="97.366" cy="189.03" r="1.5162" gradientTransform="matrix(-.070183 -.80044 .88386 -.13394 -174.01 333.77)" gradientUnits="userSpaceOnUse"><stop style="stop-color:#fff;stop-opacity:.71726" offset="0"/><stop style="stop-color:#fff;stop-opacity:0" offset="1"/></radialGradient></defs><g transform="translate(-375.9 -220.08)"><g transform="translate(405.92 2.1421)"><path d="m25.755 261.34c-2.3411 4.7974-6.8798 7.2363-10.138 5.4474s-4.001-7.128-1.6599-11.925c1.1657-2.3888-0.56991-4.6954 1.2561-5.6838 1.8412-0.99672 7.2459-0.66173 8.8816 0.23638 3.2578 1.7888 4.001 7.128 1.6599 11.925z" style="fill:#ff984f;font-variation-settings:normal;paint-order:stroke markers fill;stop-color:#000000;stroke-linecap:round"/><path d="m-11.597 228.8s1.5378-3.6062 2.1966-4.265c3.4928-2.4683 9.9167 0.3696 11.418 2.337l8.3811 11.194s0.96686 2.0143-1.0474 3.8674c-2.0143 1.8531-20.949-13.133-20.949-13.133z" style="fill:#ff984f;paint-order:stroke markers fill;stop-color:#000000;stroke-linecap:round"/><path d="m-6.3853 224.53c-1.1939-4e-5 -2.7122 0.42459-3.5259 0.76275-0.72369 1.2629-1.6707 3.4802-1.6816 3.5057l-0.0041 0.0103c2e-5 2e-5 0.06725 0.0532 0.07183 0.0568 0.03393 0.0268 0.2727 0.21352 0.53485 0.41858 0.06479 0.0506 0.09839 0.0772 0.17312 0.13539 0.33966 0.2645 0.78615 0.61019 1.3048 1.0087 0.24286 0.18663 0.49034 0.37651 0.76636 0.58705 1.17e-4 9e-5 3.99e-4 -9e-5 5.16e-4 0l8.2987 2.2267s1.218-2.4495 1.6495-3.2618c0.43152-0.81226 0.9269-1.7263-0.58343-2.7797-1.5103-1.0534-3.7192-2.3729-6.1433-2.6267-0.2913-0.0305-0.57931-0.0439-0.86145-0.0439z" style="fill:#e45e00;font-variation-settings:normal;paint-order:stroke markers fill;stop-color:#000000"/><path d="m-10.207 254.08-3.2491 9.2396-10.153 3.6552-0.05077 1.1676 2.1322 1.4215 4.4675-1.7261 1.4722 0.96458-4.2644 1.8276v0.65997l2.7922 1.6753 13.758-4.3152 0.20307-4.0106-1.523-1.2184 1.3707-7.4628z" style="fill:#686868;font-variation-settings:normal;paint-order:stroke markers fill;stop-color:#000000"/><path d="m-7.2222 256.27-3.7693 10.267-3.1465-1.708 3.9312-10.747z" style="fill:#4f4f4f;font-variation-settings:normal;paint-order:stroke markers fill;stop-color:#000000"/><path d="m-17.799 233.48-2.441 6.6052c-0.61469 1.6633-1.2031 4.1642-0.48515 6.0308 0.71796 1.8667 3.6616 7.8257 17.087 13.354 13.426 5.5282 14.201 3.8542 17.823 3.6877 4.4167-0.20306 4.4373-6.21 4.72-7.4316 0.40103-1.7326-0.0142-7.5659-1.0548-8.9952-2.2144-3.0416-18.699-15.312-20.626-16.338-3.6585-1.9487-7.6103-2.0103-9.2616-1.6513-1.6513 0.35898-4.1098 1.2205-5.7611 4.7385z" style="fill:#fff;paint-order:stroke markers fill;stop-color:#000000"/><path d="m-14.985 235.91c-1.2952-0.01-2.6561 0.23557-3.9274 0.5847l-1.3276 3.5931c-0.61469 1.6632-1.2033 4.1646-0.4853 6.0313 0.71795 1.8667 3.662 7.8253 17.088 13.354 13.426 5.5282 14.201 3.8546 17.822 3.6881 1.8627-0.0856 3.0826-1.5989 3.8935-3.4104-10.026-12.897-26.595-22.099-30.772-23.492-0.71391-0.23797-1.49-0.34243-2.291-0.34871z" style="fill:#cbcbcb;font-variation-settings:normal;paint-order:stroke markers fill;stop-color:#000000"/><path d="m-9.5885 232.51c-1.0398-0.5482-2.0623-1.1117-3.6475-1.1785 0 0 2.1667-0.99556 2.3769-1.1811" style="fill:none;font-variation-settings:normal;paint-order:stroke markers fill;stop-color:#000000;stroke-linecap:round;stroke-width:.5;stroke:#ffbd2b"/><path transform="matrix(.97625 .095011 -.0029833 .97597 -95.848 40.852)" d="m103.91 192.45a0.33412 0.33412 0 0 0-0.21094 0.20312l-1.748 4.7246a0.33412 0.33412 0 0 0 0.12696 0.39258l3.9688 2.6465a0.33412 0.33412 0 0 0 0.50195-0.17188l1.5996-4.7754a0.33412 0.33412 0 0 0-0.12891-0.38086l-3.8203-2.5957a0.33412 0.33412 0 0 0-0.28906-0.043z" style="fill:#e10000;paint-order:stroke markers fill;stop-color:#000000"/><path d="m6.0779 241.34-0.51339 0.7887 0.20735 0.18907s1.1663 0.67026 1.274 1.478c0.1077 0.80769-0.89312 2.9201-0.24908 3.4433 1.0098 0.82035 1.459 0.70163 1.4-0.61028-0.0171-0.38032 0.0648-1.2527 9e-3 -2.1823-0.0373-0.61514-2e-4 -1.6192-1.2849-2.4995l-0.62901-0.48017z" style="fill:#772824;font-variation-settings:normal;paint-order:stroke markers fill;stop-color:#000000"/><path d="m0.48918 237.57c-0.0986 0.0158-0.18701 0.0702-0.24554 0.15111-0.12105 0.16865-0.0825 0.4035 0.0861 0.52466l5.2613 3.7713c0.16867 0.12104 0.30198 6e-3 0.42314-0.16222 0.12103-0.16866 0.18405-0.32736 0.0155-0.44851l-5.2613-3.7713c-0.0808-0.0577-0.18114-0.081-0.27912-0.065z" style="color:#000000;fill:#ffbd2b;paint-order:stroke markers fill;stroke-linecap:round"/><path d="m12.892 261.83-0.17991 0.27985c0.32699 2.0854 1.317 3.8011 2.9051 4.6731 1.848 1.0147 4.1083 0.669 6.1457-0.69576-2.9661-1.6755-4.7786-3.8263-4.7786-3.8263z" style="fill:#ff832c;font-variation-settings:normal;paint-order:stroke markers fill;stop-color:#000000"/><path d="m7.3586 260.58-3.2491 9.2396-10.153 3.6552-0.05077 1.1676 2.1322 1.4215 4.4675-1.7261 1.4722 0.96458-4.2644 1.8276v0.65997l2.7922 1.6753 13.758-4.3152 0.20307-4.0106-1.523-1.2184 1.3707-7.4628z" style="fill:#686868;font-variation-settings:normal;paint-order:stroke markers fill;stop-color:#000000"/><path d="m-18.557 230.48c-0.58894 0.78307-1.1526 2.4983-1.4039 3.5393-0.25128 1.041-0.14477 2.194 0.91443 2.3999 2.3543 0.45769 5.7524-3.77 6.0754-4.9906 0.32308-1.2205-0.02868-2.2385-2.2543-2.3103-2.2257-0.0718-2.9777 0.89112-3.3316 1.3617z" style="color:#000000;fill:url(#a);font-variation-settings:normal;paint-order:stroke markers fill;stop-color:#000000;stroke-linecap:round;stroke-width:.8;stroke:#ffbd2b"/><path d="m0.79788 237.07 1.5738 1.2692c0.46667 0.22436-0.22739 1.6338-0.83765 1.2748l-1.5484-0.99559z" style="fill:#ffbd2b;font-variation-settings:normal;paint-order:stroke markers fill;stop-color:#000000"/><path d="m-13.113 229.42c1.378 0.36039 4.1452 1.2636 5.3312 1.3022" style="fill:none;font-variation-settings:normal;paint-order:stroke markers fill;stop-color:#000000;stroke-linecap:round;stroke-width:.5;stroke:#ffbd2b"/><path d="m-9.7406 232.33c-0.70174 5.3067 5.5494 12.101 9.0513 7.5073 1.041-1.3641 1.5062-3.5923 0.71646-5.0282-0.78975-1.4359-3.5118-2.6466-5.3042-3.3598-2.4055-0.95716-4.2163-0.55184-4.4636 0.88077z" style="fill:url(#a);font-variation-settings:normal;paint-order:stroke markers fill;stop-color:#000000;stroke-linecap:round;stroke-width:.8;stroke:#ffbd2b"/><path d="m15.067 258.17c-1.3053 3.5261-4.6047 5.3852-7.3692 4.1525-2.7646-1.2327-3.9475-5.0904-2.6422-8.6165 1.1886-3.2107 4.0304-5.0393 6.6164-4.4101 0.25401 0.0618 3.5928 1.0448 3.84 1.155 2.7646 1.2327 0.86032 4.193-0.44502 7.719z" style="fill:#575757;font-variation-settings:normal;paint-order:stroke markers fill;stop-color:#000000"/><ellipse transform="matrix(.9075 .42005 -.3359 .9419 0 0)" cx="99.59" cy="228.48" rx="5.3494" ry="6.824" style="fill:#686868;font-variation-settings:normal;paint-order:stroke markers fill;stop-color:#000000"/><path d="m-2.1392 272.07-4.4903 1.5241-0.69724 0.80875 2.8435 1.9494 4.9882-2.0135 0.0177 0.0117 0.0333-0.7224s-1.5679-0.9043-2.6953-1.5581zm4.5859 2.9796-0.46975 0.2793-0.045-6e-3 -4.2189 1.8085-0.63459 0.53274 3.0203 2.0814 5.7034-1.9406-0.0428-0.59746z" style="fill:#ff832c;font-variation-settings:normal;paint-order:stroke markers fill;stop-color:#000000"/><path d="m0.093582 237.65s1.3111-2.3604 0.16853-3.7275c-1.1426-1.367-6.2461-3.85-6.4204 0.26949-0.07263 1.7159 4.838 5.7188 5.3361 4.3266z" style="fill:url(#b);font-variation-settings:normal;paint-order:stroke markers fill;stop-color:#000000"/><path d="m-12.709 230.95s1.1449-2.0129 0.07552-2.1284c-1.0694-0.11545-4.4654 1.3904-2.9793 3.7878 0.61899 0.9986 3.1952-0.60041 2.9038-1.6594z" style="fill:url(#c);font-variation-settings:normal;paint-order:stroke markers fill;stop-color:#000000"/><path d="m10.343 262.76-3.7693 10.267-3.1465-1.708 3.9312-10.747z" style="fill:#575757;font-variation-settings:normal;paint-order:stroke markers fill;stop-color:#000000"/><ellipse transform="matrix(.9075 .42005 -.3359 .9419 0 0)" cx="99.59" cy="228.48" rx="3.2855" ry="4.1912" style="fill:#575757;font-variation-settings:normal;paint-order:stroke markers fill;stop-color:#000000"/><ellipse transform="matrix(.9075 .42005 -.3359 .9419 0 0)" cx="99.59" cy="228.48" rx="1.4392" ry="1.8359" style="fill:#575757;font-variation-settings:normal;paint-order:stroke markers fill;stop-color:#000000"/><path d="m-17.745 246.6c-1.8337 0.0219-1.6529 1.9357-1.9323 1.5548 1.7375 2.7177 5.8957 7.1389 16.039 11.316 3.803 1.5659 6.5898 2.553 8.7149 3.1611-2.9957-1.7434-5.8764-3.3773-6.9219-4.406-9.651-9.4955-13.934-11.649-15.9-11.626z" style="fill-opacity:.24029;fill:#6f6f6f;font-variation-settings:normal;paint-order:stroke markers fill;stop-color:#000000"/><path d="m-9.95 231.81s-1.1572-1.5473-0.87418-1.699" style="fill:none;font-variation-settings:normal;paint-order:stroke markers fill;stop-color:#000000;stroke-linecap:round;stroke-width:.5;stroke:#ffbd2b"/><path d="m-19.729 265.6-4.4903 1.5241-0.69724 0.80875 2.8435 1.9494 4.9882-2.0135 0.01773 0.0117 0.03331-0.7224s-1.5679-0.9043-2.6953-1.5581zm4.5859 2.9795-0.46975 0.27931-0.04502-6e-3 -4.2189 1.8085-0.63459 0.53274 3.0203 2.0814 5.7034-1.9406-0.04277-0.59746z" style="fill:#ff832c;font-variation-settings:normal;paint-order:stroke markers fill;stop-color:#000000"/><path d="m-22.132 220.77c-0.75595 2.4332-1.4543 4.0205-3.7694 4.5638 3.3545 0.82683 2.919 2.269 3.7694 4.5369 0.46911-2.2591 0.57761-4.1069 3.3652-4.7447-2.4568-0.68508-2.7037-2.4661-3.3652-4.356z" style="fill:#ffd67b;font-variation-settings:normal;paint-order:stroke markers fill;stop-color:#000000"/><path d="m-24.691 229.54c-0.45527 1.6815-0.62969 2.5864-2.4938 3.1464 1.6006 0.54286 2.0557 0.92415 2.3048 3.025 0.50252-2.1087 0.81868-2.5258 2.153-3.1636-1.9223-0.65168-1.6366-1.3184-1.964-3.0078z" style="fill:#ffecc2;font-variation-settings:normal;paint-order:stroke markers fill;stop-color:#000000"/></g></g></svg>
