<?xml version="1.0" encoding="UTF-8"?>
<svg width="4.7172in" height="3.1548in" version="1.1" viewBox="0 0 119.82 80.131" xml:space="preserve" xmlns="http://www.w3.org/2000/svg" xmlns:xlink="http://www.w3.org/1999/xlink"><g transform="translate(-370.12 -98.359)"><path id="a" d="m369.43 143.22c-9.3662 22.422 1.4076 33.122 7.3561 37.061-0.97177 2.1142-1.7062 3.804-1.9296 4.4964-0.81116 2.5138 0.11715 2.887 3.0427 3.1998 2.9256 0.3128 17.469-1.5145 19.333-2.2205 2.2382-0.84791 2.6499-1.1188 2.0454-3.9992-0.66373-3.1624-8.5813-17.062-10.28-18.96-1.8314-2.0464-2.654-1.8387-3.8776 0.65298-0.18561 0.37797-0.80479 1.7953-1.2309 2.5512-4.9713-7.4599-0.0956-15.789-0.0956-15.789l-3.4122-1.6609c-1.6327 3.445-2.8984 7.5349-2.3926 11.49 0.0824 0.64338-0.37212 1.2318-1.0154 1.3146-0.64409 0.0823-1.2329-0.37335-1.3146-1.0175-0.59339-4.6394 0.83016-9.1369 2.5978-12.822l-3.2639-1.5885c-2.5415 5.6743-3.3303 8.7981-3.0546 12.879 0.0441 0.64724-0.4447 1.2078-1.0919 1.2521-0.64761 0.0438-1.208-0.44584-1.2516-1.0935-0.30398-4.4989 0.6468-8.1529 3.2856-14.066z" style="fill-opacity:.20874;paint-order:markers fill stroke;stop-color:#000000"/><use id="b" transform="rotate(220.17 397.75 157.18)" style="fill-opacity:.17718;fill:#000000" xlink:href="#a"/><use id="c" transform="rotate(59.958 422.22 164.39)" style="fill-opacity:.17718;fill:#000000" xlink:href="#a"/><use transform="translate(0 -80.131)" xlink:href="#a"/><use transform="translate(0 -80.131)" xlink:href="#b"/><use transform="matrix(1 0 0 1 61.371 -36.171)" xlink:href="#a"/><use transform="matrix(1 0 0 1 61.371 -36.171)" xlink:href="#b"/><use transform="matrix(1 0 0 1 61.371 -36.171)" xlink:href="#c"/><use transform="translate(-58.448 -36.171)" xlink:href="#b"/><use transform="translate(61.371 43.959)" xlink:href="#c"/><use transform="translate(119.82)" xlink:href="#a"/></g></svg>
