<?xml version="1.0" encoding="UTF-8"?>
<svg width=".93576in" height="1.2136in" version="1.1" viewBox="0 0 23.768 30.826" xml:space="preserve" xmlns="http://www.w3.org/2000/svg"><g transform="translate(-258.94 -140.82)"><path d="m271.58 140.82a0.568 0.568 0 0 0-0.56836 0.56836v4.4082h-0.38281v-4.3945a0.568 0.568 0 0 0-0.56836-0.56836h-2.1055a0.568 0.568 0 0 0-0.56836 0.56836v4.3945h-0.38477v-4.3945a0.568 0.568 0 0 0-0.56836-0.56836h-2.1816a0.568 0.568 0 0 0-0.56836 0.57031l0.0352 12.775c4.5e-4 0.2201-0.25994 0.48164-0.2832 0.49024-0.44543 0.16472-1.1517 0.35973-1.7871 0.53515-0.31773 0.0877-0.61875 0.17202-0.87305 0.25-0.2543 0.078-0.43638 0.12856-0.63672 0.24219-0.2658 0.15076-0.66715 0.36599-0.96094 0.78321-0.29378 0.41721-0.35561 1.1115 0.0176 1.707 1.6598 2.6484 4.0248 5.9564 6.2051 8.6211 1.0901 1.3323 2.1324 2.503 3.0293 3.3574 0.44843 0.42721 0.85992 0.77522 1.2402 1.0312s0.71671 0.44922 1.1504 0.44922a0.568 0.568 0 0 0 0.0195-0.0195c0.42317-6e-3 0.75703-0.18968 1.1309-0.44141 0.38031-0.25609 0.7918-0.60395 1.2402-1.0312 0.89687-0.85459 1.9392-2.0248 3.0293-3.3574 2.1802-2.6652 4.5453-5.9746 6.2051-8.623 0.37319-0.59549 0.31137-1.2898 0.0176-1.707-0.29378-0.41721-0.69513-0.63244-0.96094-0.7832-0.20001-0.11345-0.38245-0.16402-0.63672-0.24219-0.25426-0.0782-0.5553-0.16204-0.87304-0.25-0.63548-0.17592-1.3414-0.37227-1.7871-0.53711-0.0234-9e-3 -0.28386-0.27075-0.2832-0.49023l0.0351-12.773a0.568 0.568 0 0 0-0.56836-0.57031h-2.1816a0.568 0.568 0 0 0-0.56836 0.56836v4.4082h-0.38476v-4.4082a0.568 0.568 0 0 0-0.56836-0.56836z" style="-inkscape-stroke:none;fill:#fff;font-variation-settings:normal;paint-order:markers stroke fill;stop-color:#000000"/><path d="m271.58 141.39v4.9762h-1.5204v-4.9622h-2.1056v4.9622h-1.5204v-4.9622h-2.1818l0.0354 12.775c1e-3 0.48487-0.33817 0.90778-0.65528 1.025-0.97865 0.3619-2.837 0.77572-3.2142 0.98964-0.51124 0.28996-1.313 0.78559-0.74314 1.695 3.2874 5.2455 9.4383 13.192 11.145 13.192v-0.0135c1.707 0 7.8573-7.9474 11.145-13.193 0.5699-0.90936-0.23068-1.4044-0.74193-1.6943-0.37714-0.21392-2.2355-0.62834-3.2142-0.99025-0.31711-0.11724-0.65673-0.54014-0.65529-1.025l0.0348-12.775h-2.1818v4.9762h-1.5211v-4.9762z" style="-inkscape-stroke:none;fill:#5f15c8;font-variation-settings:normal;paint-order:markers stroke fill;stop-color:#000000"/></g></svg>
