<?xml version="1.0" encoding="UTF-8"?>
<svg width=".66321in" height="1.1024in" version="1.1" viewBox="0 0 16.846 28" xmlns="http://www.w3.org/2000/svg"><g transform="translate(-265.27 -97.2)"><g transform="translate(-5.5063 -1.6529)"><path d="m275.31 104.39a0.95811 0.95811 0 0 0-0.95911 0.9586v2.5745a0.95811 0.95811 0 0 0 0.78496 0.78289 0.95811 0.95811 0 0 0-0.78496 0.78549v2.574a0.95811 0.95811 0 0 0 0.78496 0.78496 0.95811 0.95811 0 0 0-0.78496 0.78342v2.5745a0.95811 0.95811 0 0 0 0.78496 0.7829 0.95811 0.95811 0 0 0-0.78496 0.78496v2.5745a0.95811 0.95811 0 0 0 0.95911 0.95912h12.318a0.95811 0.95811 0 0 0 5.2e-4 0v-0.96015h-12.32v-2.574h6.1598v-1.5684h-6.1598v-2.574h6.1598v-1.5679h-6.1598v-2.574h6.1598v-1.5679h-6.1598v-2.574h12.32v-0.95963a0.95811 0.95811 0 0 0-5.2e-4 0h-6.1598z" style="fill:#fff;font-variation-settings:normal;paint-order:markers stroke fill;stop-color:#000000"/><path d="m275.31 105.35v2.574h6.1598v1.5679h-6.1598v2.574h6.1598v1.5679h-6.1598v2.574h6.1598v1.5684h-6.1598v2.574h12.32v-15h-6.1598z" style="fill:#5f15c8;font-variation-settings:normal;paint-order:markers stroke fill;stop-color:#000000"/></g><rect x="265.27" y="97.2" width="16.846" height="28" style="fill-opacity:0;font-variation-settings:normal;paint-order:markers stroke fill;stop-color:#000000"/></g></svg>
