<?xml version="1.0" encoding="UTF-8"?>
<svg width=".66321in" height="1.1024in" version="1.1" viewBox="0 0 16.846 28" xmlns="http://www.w3.org/2000/svg"><g transform="translate(-314.8 -97.2)"><path transform="matrix(0 -1.3077 .92549 0 257.19 551.66)" d="m328.88 62.244c-0.73491-1.96e-4 -1.4564 0.41649-1.8242 1.0527-0.36781 0.63624-0.3669 1.4687 0 2.1055l3.9707 6.877 3.9688 6.873c0.36716 0.638 1.0901 1.0566 1.8262 1.0566 0.73518 0 1.4566-0.41805 1.8242-1.0547l3.9707-6.875 3.9688-6.877c0.3669-0.63677 0.36782-1.4692 0-2.1055s-1.0893-1.0529-1.8242-1.0527h-7.9394z" style="fill:#fff;font-variation-settings:normal;paint-order:markers stroke fill;stop-color:#000000"/><path d="m316.7 99.433a0.98021 1.385 0 0 0-0.93276 1.3839v2.882h-0.96893v15h0.96893v2.8851a0.98021 1.385 0 0 0 1.4697 1.2004l6.3645-5.1924 6.3629-5.1924a0.98021 1.385 0 0 0 0-2.4009l-6.3629-5.1924-6.3645-5.1899a0.98021 1.385 0 0 0-0.53692-0.18346z" style="fill:#5f15c8;font-variation-settings:normal;paint-order:markers stroke fill;stop-color:#000000"/><rect x="314.8" y="97.2" width="16.846" height="28" style="fill-opacity:0;font-variation-settings:normal;paint-order:markers stroke fill;stop-color:#000000"/></g></svg>
