<?xml version="1.0" encoding="UTF-8" standalone="no"?>
<svg
   inkscape:version="1.2.1 (9c6d41e410, 2022-07-14)"
   id="svg8"
   version="1.1"
   viewBox="0 0 19.795964 19.795965"
   height="0.7793687in"
   width="0.77936864in"
   sodipodi:docname="unknown.svg"
   xml:space="preserve"
   xmlns:inkscape="http://www.inkscape.org/namespaces/inkscape"
   xmlns:sodipodi="http://sodipodi.sourceforge.net/DTD/sodipodi-0.dtd"
   xmlns="http://www.w3.org/2000/svg"
   xmlns:svg="http://www.w3.org/2000/svg"
   xmlns:rdf="http://www.w3.org/1999/02/22-rdf-syntax-ns#"
   xmlns:cc="http://creativecommons.org/ns#"
   xmlns:dc="http://purl.org/dc/elements/1.1/"><defs
     id="defs2" /><sodipodi:namedview
     units="in"
     inkscape:snap-bbox="true"
     inkscape:showpageshadow="false"
     showgrid="false"
     inkscape:document-rotation="0"
     inkscape:current-layer="text307"
     inkscape:document-units="mm"
     inkscape:cy="28.374999"
     inkscape:cx="-67.499998"
     inkscape:zoom="4.0000001"
     inkscape:pageshadow="2"
     inkscape:pageopacity="0"
     borderopacity="1"
     bordercolor="#b7b7b7"
     pagecolor="#404040"
     id="base"
     inkscape:pagecheckerboard="0"
     inkscape:deskcolor="#404040" /><metadata
     id="metadata5"><rdf:RDF><cc:Work
         rdf:about=""><dc:format>image/svg+xml</dc:format><dc:type
           rdf:resource="http://purl.org/dc/dcmitype/StillImage" /></cc:Work></rdf:RDF></metadata><g
     id="layer1"
     inkscape:groupmode="layer"
     inkscape:label="Layer 1"
     transform="translate(-320.18808,-90.445236)"><g
       id="g1363"
       style="stroke:none"><rect
         style="fill:none;fill-opacity:1;stroke:none;stroke-width:0.209494;stroke-dasharray:none;stroke-opacity:1;paint-order:markers stroke fill;stop-color:#000000"
         id="rect1286"
         width="19.795965"
         height="19.795965"
         x="320.18808"
         y="90.445236" /><g
         aria-label="?"
         id="text307"
         style="font-size:14.3892px;line-height:1.25;font-family:Expressway;-inkscape-font-specification:Expressway;letter-spacing:0px;word-spacing:0px;fill:#2d2d2d;fill-opacity:1;stroke-width:0.337246"
         transform="matrix(1.3376837,0,0,1.3376837,-111.41647,-33.90275)"><path
           d="m 331.61117,95.47652 q 0.45809,0.399355 0.9749,0.916169 0.51681,0.505066 0.79871,0.810456 l 0.29364,0.30539 -0.64601,3.112625 q -0.32888,0.2819 -0.71649,0.5638 -0.37587,0.28189 -0.59903,0.42284 l -0.22318,0.14095 q -0.24665,-0.0353 -0.44633,-0.0235 -0.19968,0.0118 -0.31714,0.047 l -0.1292,0.0469 -0.0822,1.31552 h -1.55044 l -0.094,-1.62091 q 0.27015,-0.22317 0.54031,-0.51681 0.27015,-0.29365 0.39936,-0.46983 l 0.1292,-0.18794 q 0.21142,0 0.55205,-0.0235 0.34063,-0.0235 0.57554,-0.047 l 0.23492,-0.0353 0.1292,-2.748503 q -0.76347,-0.02349 -1.52695,-0.02349 -0.75173,0 -1.12759,0.01175 h -0.37587 l 0.0822,1.808846 -2.04376,0.199678 -0.23492,-1.891066 1.89106,-2.149473 z m -2.76025,8.48043 q 0.85744,-0.0118 1.78536,0.0118 -0.0118,0.6695 -0.0353,1.38599 h -1.66789 q -0.0353,-0.73998 -0.0822,-1.39774 z"
           style="font-family:'Splatfont 2';-inkscape-font-specification:'Splatfont 2, ';fill:#919191;fill-opacity:1;stroke-width:0.27529"
           id="path562" /></g></g></g><inkscape:templateinfo><inkscape:name>Dark Background</inkscape:name><inkscape:shortdesc>8.5x11</inkscape:shortdesc><inkscape:date>2020-07-09</inkscape:date></inkscape:templateinfo></svg>
