<?xml version="1.0" encoding="UTF-8"?>
<svg width="1.7974in" height="1.5368in" version="1.1" viewBox="0 0 45.654 39.034" xml:space="preserve" xmlns="http://www.w3.org/2000/svg"><g transform="translate(435.76 -123.46)"><path d="m-427.92 129.94-3.9197 5.0266-3.9202 5.0271h3.684a19.403 19.403 0 0 0-0.25942 3.3083 19.403 19.403 0 0 0 19.612 19.191 19.403 19.403 0 0 0 11.353-3.8385l-0.85938-1.1514c-2.9394 2.1888-6.5702 3.5032-10.51 3.546-1.0831 0.0118-2.145-0.0729-3.1776-0.24598l0.27285-1.619c0.93779 0.15629 1.9024 0.23292 2.8866 0.22221 3.5844-0.039 6.8833-1.2278 9.5524-3.2112l-1.2356-1.6562c-2.333 1.7354-5.2142 2.7767-8.339 2.8107-0.85972 9e-3 -1.7026-0.0584-2.5223-0.19585l0.27233-1.6159c0.72518 0.12077 1.4712 0.17984 2.2324 0.17156 2.7699-0.0301 5.3182-0.94761 7.381-2.4784l-1.1968-1.604a10.633 10.633 0 0 1-6.2053 2.097 10.633 10.633 0 0 1-10.749-10.517 10.633 10.633 0 0 1 0.46612-3.2132h3.0205l-3.9197-5.0271z" style="fill:#fff;paint-order:markers stroke fill;stop-color:#000000"/><path d="m-397.95 156.01 3.9197-5.0266 3.9202-5.0271h-3.684a19.403 19.403 0 0 0 0.25942-3.3083 19.403 19.403 0 0 0-19.612-19.191 19.403 19.403 0 0 0-11.353 3.8385l0.85938 1.1514c2.9394-2.1888 6.5702-3.5032 10.51-3.546 1.0831-0.0118 2.145 0.0729 3.1776 0.24598l-0.27285 1.619c-0.93779-0.15628-1.9024-0.23291-2.8866-0.2222-3.5844 0.039-6.8833 1.2278-9.5524 3.2112l1.2356 1.6562c2.333-1.7354 5.2142-2.7767 8.339-2.8107 0.85972-9e-3 1.7026 0.0584 2.5223 0.19585l-0.27233 1.6159c-0.72518-0.12078-1.4712-0.17984-2.2324-0.17156-2.7699 0.0301-5.3182 0.94761-7.381 2.4784l1.1968 1.604a10.633 10.633 0 0 1 6.2053-2.097 10.633 10.633 0 0 1 10.749 10.517 10.633 10.633 0 0 1-0.46612 3.2132h-3.0205l3.9197 5.0271z" style="fill:#fff;paint-order:markers stroke fill;stop-color:#000000"/></g></svg>
