<?xml version="1.0" encoding="UTF-8"?>
<svg width=".77937in" height=".77937in" version="1.1" viewBox="0 0 19.796 19.796" xmlns="http://www.w3.org/2000/svg"><g transform="translate(-324.59 -110.24)"><g transform="translate(4.3999 19.796)"><rect x="320.19" y="90.445" width="19.796" height="19.796" style="fill:none;paint-order:markers stroke fill;stop-color:#000000"/><path d="m333 106.08c-1.108-3.0217-2.0145-5.7844-2.0145-5.7844s1.0072-2.7339 2.144-5.6549c0 0-1.0936-0.14389-2.144-0.24461-0.28778 1.2662-0.82017 2.8346-0.82017 2.8346s-0.40289-1.4389-0.6475-2.8778c0 0-1.2375 0.11511-2.3598 0.259 0.87773 2.662 1.8418 5.6837 1.8418 5.6837s-0.83456 2.6764-1.9569 5.8275c0 0 1.0504 0.11512 2.0576 0.21584 0 0 0.44605-1.6835 0.87772-3.2951 0 0 0.60434 1.9281 0.99285 3.2375 0 0 1.0504-0.10072 2.0288-0.20144z" style="fill:#fff;stroke-width:.33725" aria-label="X"/><text x="344.26517" y="101.75617" style="font-family:Expressway;font-size:11.289px;letter-spacing:0px;line-height:1.25;stroke-width:.26458;word-spacing:0px" xml:space="preserve"><tspan style="stroke-width:.26458"/></text></g></g></svg>
